<?xml version="1.0" encoding="UTF-8"?>
<svg id="Layer_2" data-name="Layer 2" xmlns="http://www.w3.org/2000/svg" viewBox="0 0 266.76 53.81">
  <defs>
    <style>
      .cls-1 {
        fill: #fff;
      }

      .cls-2 {
        fill: #e81938;
      }
    </style>
  </defs>
  <g id="Layer_2-2" data-name="Layer 2">
    <g id="Layer_1-2" data-name="Layer 1-2">
      <g>
        <path class="cls-1" d="M0,.72h20.66c11.89,0,18.77,6.7,18.77,17.11,0,7.16-3.3,12.35-9.26,14.91l11.12,20.36h-12.22l-9.92-18.57h-8.08v18.57H0V.72ZM18.59,25.62c6.34,0,9.44-2.61,9.44-7.8s-3.09-8.06-9.49-8.06h-7.47v15.86s7.52,0,7.52,0Z"/>
        <path class="cls-1" d="M70.85,53.81c-13.96,0-24.53-9.85-24.53-26.9S56.89,0,70.85,0s24.52,9.77,24.52,26.9-10.64,26.9-24.52,26.9h0ZM70.85,9.79c-8.06,0-13.3,6.01-13.3,17.11s5.24,17.11,13.3,17.11,13.3-6.01,13.3-17.11-5.27-17.11-13.3-17.11Z"/>
        <path class="cls-1" d="M99.23.72h43.01v9.13h-16.03v43.25h-10.95V9.85h-16.03s0-9.13,0-9.13Z"/>
        <path class="cls-1" d="M140.06,53.09L158.14.72h14.27l18.05,52.38h-11.87l-3.89-11.94h-18.9l-3.89,11.94h-11.87.02ZM171.92,32.5l-6.44-19.82h-.41l-6.44,19.82h13.3,0Z"/>
        <path class="cls-2" d="M195.61,28.08c.05-17.59,8.36-28.08,21.3-28.08,10.46,0,17.62,6.73,18.67,15.34h-10.92c-.84-3.66-3.73-5.86-7.75-5.86-6.83,0-10.41,6.34-10.46,16.55h.36c2.35-4.63,7.44-7.39,13.2-7.39,9.28,0,16.14,7.08,16.11,16.9.03,10.66-7.93,18.31-19.59,18.26-10.77-.05-20.94-6.55-20.92-25.73h0ZM225.38,35.85c.03-5.19-3.71-9.21-8.82-9.21s-8.95,4.14-8.98,9.23c0,5.11,3.78,9.23,8.9,9.23s8.93-4.01,8.9-9.26h0Z"/>
        <path class="cls-2" d="M266.75,53.09h-11.07V11.23h-.31l-11.99,7.52v-9.82l12.97-8.21h10.41v52.38h0Z"/>
      </g>
    </g>
  </g>
</svg>