<svg xmlns="http://www.w3.org/2000/svg" version="1.1" xmlns:xlink="http://www.w3.org/1999/xlink" width="71.13" height="53.81"><svg xmlns="http://www.w3.org/2000/svg" version="1.1" xmlns:xlink="http://www.w3.org/1999/xlink" width="71.13" height="53.81"><svg id="Layer_2" data-name="Layer 2" xmlns="http://www.w3.org/2000/svg" viewBox="0 0 71.13 53.81">
  <defs>
    <style>
      .cls-1 {
        fill: #e81938;
      }
    </style>
  </defs>
  <g id="Layer_2-2" data-name="Layer 2">
    <g>
      <path class="cls-1" d="M0,28.08C.05,10.48,8.36,0,21.3,0c10.46,0,17.62,6.73,18.67,15.34h-10.92c-.84-3.66-3.73-5.86-7.75-5.86-6.83,0-10.41,6.34-10.46,16.55h.36c2.35-4.63,7.44-7.39,13.2-7.39,9.28,0,16.14,7.08,16.11,16.9.03,10.66-7.93,18.31-19.59,18.26C10.15,53.76-.03,47.26,0,28.08ZM29.77,35.85c.03-5.19-3.71-9.21-8.82-9.21s-8.95,4.14-8.98,9.23c0,5.11,3.78,9.23,8.9,9.23s8.93-4.02,8.9-9.26Z"></path>
      <path class="cls-1" d="M71.13,53.09h-11.07V11.23h-.31l-11.99,7.52v-9.82L60.73.72h10.41v52.38Z"></path>
    </g>
  </g>
</svg></svg><style>@media (prefers-color-scheme: light) { :root { filter: none; } }
@media (prefers-color-scheme: dark) { :root { filter: none; } }
</style></svg>